# xmcd
#
# Track frame offsets:
#	225
#	13863
#	25670
#	35684
#	46217
#	61549
#	74434
#	88304
#	101994
#	110432
#	129268
#	133898
#	147882
#	155768
#
# Disc length: 2279 seconds
#
# Revision: 1
# Processed by: cddbd v1.5.2PL0 Copyright (c) Steve Scherf et al.
# Submitted via: audiograbber 1.83.01
#
DISCID=c708e40e
DTITLE=Festliche Weihnacht Vol.2 - Festliche Weihnacht Vol.2
DYEAR=1900
DGENRE=Country
TTITLE0=Oh du fröhliche Weihnachtszeit-Instrumental
TTITLE1=Kleiner Trommelmann-Roy Black
TTITLE2=Auf,all ihr Hirten-Panflöten Ensebmle
TTITLE3=Jingle Bells-Freddy Quinn
TTITLE4=Es ist ein Ros' entsprungen-Offenbacher Kinderchor
TTITLE5=Weihnachten wird's bald überall-Erik Silvester
TTITLE6=Süßer die Glocken nie klingen- Stub'n Musik Hofer
TTITLE7=Es wird scho glei dumpa-Lolita
TTITLE8=Aber heidschi bumbeidschi-Großer Weihnachtschor
TTITLE9=Waldwinter-Heino
TTITLE10=Am Weihnachtsbaum die Lichter brennen-Turmbläser Gruppe
TTITLE11=Weihnachtslieder erklingen wieder-Freddy Breck
TTITLE12=Kommet ihr Hirten-Stub'n Musik Hofer
TTITLE13=Stille Nacht,heilige Nacht-Heintje
EXTD=
EXTT0=
EXTT1=
EXTT2=
EXTT3=
EXTT4=
EXTT5=
EXTT6=
EXTT7=
EXTT8=
EXTT9=
EXTT10=
EXTT11=
EXTT12=
EXTT13=
PLAYORDER=
